<svg xmlns="http://www.w3.org/2000/svg" viewBox="0 0 30 33" width="30" height="33">
	<defs>
		<clipPath clipPathUnits="userSpaceOnUse" id="cp1">
			<path d="M-824 -1284L616 -1284L616 1481L-824 1481Z" />
		</clipPath>
	</defs>
	<style>
		tspan { white-space:pre }
		.shp0 { fill: #fc7348 } 
	</style>
	<g id="Vitrade Ver 2" clip-path="url(#cp1)">
		<g id="-e-advertise">
			<path id="Path" class="shp0" d="M28.7 13.74L15.78 1.07C15.02 0.32 13.78 0.33 13.03 1.07C12.27 1.81 12.27 3.02 13.03 3.76L25.96 16.44C26.71 17.18 27.94 17.18 28.7 16.44C29.46 15.69 29.46 14.49 28.7 13.74Z" />
			<path id="Path" class="shp0" d="M12.07 5.51L11.98 5.99C11.29 9.35 9.62 12.55 7.37 15.13L14.4 22.03C17.04 19.82 20.25 18.15 23.68 17.47L24.17 17.38L12.07 5.51Z" />
			<path id="Shape" fill-rule="evenodd" class="shp0" d="M12.95 23.3L8.14 28.01C7 29.13 5.16 29.12 4.02 28.01L1.28 25.32C0.14 24.2 0.14 22.39 1.28 21.28L6.08 16.56L12.95 23.3ZM8.14 22.62C8.52 22.25 8.52 21.65 8.14 21.28C7.76 20.9 7.15 20.9 6.77 21.28L5.4 22.62C5.02 22.99 5.02 23.6 5.4 23.97C5.78 24.34 6.39 24.34 6.77 23.97L8.14 22.62Z" />
			<path id="Path" class="shp0" d="M17 28.51L18.32 27.22C19.46 26.1 19.46 24.29 18.32 23.18L17.34 22.22C16.8 22.57 16.28 22.96 15.78 23.38L16.95 24.53C17.33 24.9 17.33 25.5 16.95 25.87L15.61 27.19L13.63 25.32L10.89 28.01L15.29 32.19C16.04 32.93 17.28 32.94 18.04 32.19C18.79 31.45 18.79 30.24 18.04 29.5L17 28.51Z" />
			<path id="Path" class="shp0" d="M20.92 0.25C20.39 0.25 19.95 0.68 19.95 1.2L19.95 3.11C19.95 3.63 20.39 4.06 20.92 4.06C21.46 4.06 21.89 3.63 21.89 3.11L21.89 1.2C21.89 0.68 21.46 0.25 20.92 0.25Z" />
			<path id="Path" class="shp0" d="M28.69 7.87L26.75 7.87C26.21 7.87 25.78 8.29 25.78 8.82C25.78 9.35 26.21 9.77 26.75 9.77L28.69 9.77C29.22 9.77 29.66 9.35 29.66 8.82C29.66 8.29 29.22 7.87 28.69 7.87Z" />
			<path id="Path" class="shp0" d="M27.43 2.43C27.05 2.06 26.44 2.06 26.06 2.43L24.12 4.34C23.74 4.71 23.74 5.31 24.12 5.68C24.5 6.06 25.11 6.06 25.49 5.68L27.43 3.78C27.81 3.41 27.81 2.8 27.43 2.43Z" />
		</g>
	</g>
</svg>