<?xml version="1.0" encoding="UTF-8"?>
<svg width="35px" height="33px" viewBox="0 0 35 33" version="1.1" xmlns="http://www.w3.org/2000/svg" xmlns:xlink="http://www.w3.org/1999/xlink">
    <!-- Generator: Sketch 52.5 (67469) - http://www.bohemiancoding.com/sketch -->
    <title>advisory</title>
    <desc>Created with Sketch.</desc>
    <g id="Page-1" stroke="none" stroke-width="1" fill="none" fill-rule="evenodd">
        <g id="Vitrade-Ver-2" transform="translate(-822.000000, -1379.000000)" fill="#FC7348">
            <g id="advisory" transform="translate(822.166667, 1379.250000)">
                <path d="M32.7107083,25.0332604 L34.647099,15.1821719 C34.756651,14.6247969 34.3936667,14.0842135 33.8363594,13.9745938 C33.2784427,13.8651771 32.738401,14.2281615 32.6287813,14.785401 L30.8555,23.8063854 L28.2402656,23.8063854 C28.6146927,23.7204635 28.9615625,23.5322344 29.2390313,23.2575417 C29.6324167,22.8680833 29.8544323,22.3380625 29.8559219,21.7844792 L29.8752188,14.7274427 C29.878401,13.570375 28.9360365,12.6328177 27.7795781,12.6410781 L25.865599,12.6547552 C24.7096823,12.6630156 23.781875,13.6128958 23.8000208,14.7682031 L23.8251406,16.3612448 L25.6519792,14.3293177 L23.7723281,17.698349 L19.4991198,17.698349 C18.8128281,17.698349 18.2566042,18.2546406 18.2566042,18.9409323 C18.2566042,19.627224 18.8128958,20.1835156 19.4991198,20.1835156 L24.5018854,20.1835156 C24.952349,20.1835156 25.3674688,19.9396979 25.5869115,19.5463125 L27.5194427,16.0824896 C27.2362188,17.415125 26.829901,18.7051042 26.3608854,19.9197917 C26.1572188,20.4472396 25.6949063,20.8529479 25.0583125,20.9537656 L20.469651,20.9403594 C19.981,20.9367708 19.5153698,21.1777448 19.2334323,21.591375 C18.9548125,21.9999948 18.8968542,22.5201302 19.0789219,22.9800052 L22.463526,31.5332604 C22.766724,32.2995156 23.6333229,32.6739427 24.3985625,32.3710833 C25.164276,32.0680885 25.5393802,31.2016927 25.2363854,30.4360469 L24.8054219,29.3468906 L26.1488229,25.8635677 L30.0547135,25.8635677 L32.4331719,32.030849 C32.5696719,32.3847604 32.9670521,32.5599219 33.3196094,32.4238958 C33.6729792,32.287599 33.8488854,31.8906927 33.7126563,31.5374583 L31.524526,25.8635 L31.7015833,25.8635 C32.1931458,25.8633646 32.6159844,25.5155469 32.7107083,25.0332604 Z M24.0610365,27.4656146 L22.6614375,23.928599 L24.0081563,23.932526 C23.6895885,24.1072812 23.4734635,24.4457552 23.4734635,24.8347396 C23.4734635,25.4027448 23.9339479,25.8632292 24.5019531,25.8632292 L24.6790104,25.8632292 L24.0610365,27.4656146 Z" id="Shape" fill-rule="nonzero"></path>
                <circle id="Oval" cx="25.2051042" cy="8.96052083" r="2.74232292"></circle>
                <path d="M10.164849,20.1832448 L15.1676146,20.1832448 C15.8539062,20.1832448 16.4101302,19.6269531 16.4101302,18.9406615 C16.4101302,18.2543698 15.8538385,17.6982813 15.1676146,17.6982813 L10.894474,17.6982813 L9.0146875,14.3293177 L10.8414583,16.3611771 L10.8665781,14.7681354 C10.8847917,13.6122865 9.95644271,12.6629479 8.801,12.6546875 L6.88702083,12.6410104 C5.72995312,12.63275 4.78819792,13.5709844 4.79138021,14.727375 L4.81067708,21.7844115 C4.81223437,22.3379948 5.03425,22.8680156 5.42763542,23.257474 C5.70517187,23.5321667 6.05197396,23.7203958 6.42640104,23.8063177 L3.81116667,23.8063177 L2.03788542,14.7853333 C1.92840104,14.2278906 1.38761458,13.8650417 0.830307292,13.974526 C0.272932292,14.0840781 -0.0901197917,14.6247292 0.0195677083,15.1821042 L1.95602604,25.0331927 C2.05075,25.5154792 2.47365625,25.8633646 2.96521875,25.8633646 L3.14220833,25.8633646 L0.954010417,31.5371198 C0.81778125,31.8904896 0.993755208,32.2873281 1.347125,32.4235573 C1.69988542,32.559651 2.09719792,32.3842188 2.23349479,32.0305781 L4.61195312,25.8632969 L8.51784375,25.8632969 L9.8613125,29.3465521 L9.43034896,30.4357083 C9.12735417,31.2014219 9.50239062,32.06775 10.2681719,32.3707448 C11.0334792,32.6736719 11.9000781,32.2989063 12.2032083,31.5329219 L15.5878125,22.9796667 C15.7698125,22.5198594 15.7119219,21.999724 15.4333021,21.5910365 C15.156849,21.185599 14.6944687,20.9400208 14.2014844,20.9400208 C14.2000625,20.9400208 14.1985729,20.9400208 14.1970833,20.9400208 C9.31957812,20.9542396 9.62738021,20.9562031 9.57835937,20.9484167 C8.98130729,20.8535573 8.51026042,20.4449375 8.30571354,19.9194531 L7.14715625,16.082151 L9.07982292,19.5460417 C9.29919792,19.9394948 9.71438542,20.1832448 10.164849,20.1832448 Z M10.164849,25.8633646 C10.7328542,25.8633646 11.1933385,25.4028802 11.1933385,24.8348073 C11.1933385,24.4457552 10.9772135,24.1072813 10.6586458,23.9325938 L12.0053646,23.9286667 L10.6056979,27.46575 L9.98765625,25.8633646 L10.164849,25.8633646 Z" id="Shape" fill-rule="nonzero"></path>
                <circle id="Oval" cx="9.46190104" cy="8.96052083" r="2.74232292"></circle>
                <path d="M16.6714167,0.0239010417 C13.9589531,0.0239010417 11.7600573,1.60726042 11.7600573,3.56051042 C11.7600573,4.61080208 12.3964479,5.55364063 13.4059792,6.20140625 L12.7251719,7.56098958 C12.6557031,7.69972396 12.6852917,7.86757292 12.7978906,7.97414583 C12.9104896,8.08071875 13.0797604,8.10116667 13.2144323,8.02418229 L15.1444583,6.92195833 C15.6251875,7.03509896 16.1380781,7.09711979 16.6712813,7.09711979 C19.3838802,7.09711979 21.5827083,5.51369271 21.5827083,3.56051042 C21.582776,1.60726042 19.3839479,0.0239010417 16.6714167,0.0239010417 Z" id="Path"></path>
            </g>
        </g>
    </g>
</svg>