<?xml version="1.0" encoding="UTF-8"?>
<svg width="34px" height="34px" viewBox="0 0 34 34" version="1.1" xmlns="http://www.w3.org/2000/svg" xmlns:xlink="http://www.w3.org/1999/xlink">
    <!-- Generator: Sketch 52.5 (67469) - http://www.bohemiancoding.com/sketch -->
    <title>agricultural</title>
    <desc>Created with Sketch.</desc>
    <g id="Page-1" stroke="none" stroke-width="1" fill="none" fill-rule="evenodd">
        <g id="Vitrade-Ver-2" transform="translate(-579.000000, -866.000000)" fill="#FC7348">
            <path d="M603.403103,876.425862 C603.663664,875.148836 604.79556,874.184483 606.148233,874.184483 L607.772672,874.184483 C607.512672,875.461509 606.380776,876.425862 605.027543,876.425862 L603.403103,876.425862 Z M590.546552,871.382759 C590.491078,871.382759 590.437284,871.389483 590.382371,871.391164 L589.986207,867.407112 C589.986207,867.1275 590.213707,866.9 590.493879,866.9 L590.599784,866.9 C590.879397,866.9 591.106897,867.1275 591.104655,867.457543 L590.711293,871.391164 C590.655819,871.389483 590.602026,871.382759 590.546552,871.382759 Z M586.063793,883.15 L586.063793,883.771983 C585.742155,883.443621 585.362802,883.173534 584.943103,882.973491 L584.943103,882.589655 L586.114224,882.589655 C586.083405,882.772328 586.063793,882.958922 586.063793,883.15 Z M585.610474,869.452931 C585.594784,869.429397 585.580216,869.404181 585.567888,869.381767 C585.416034,869.078621 585.53931,868.708793 585.842457,868.5575 L585.982543,868.487457 C586.128793,868.414052 586.295216,868.401724 586.451552,868.453836 C586.607888,868.505388 586.733405,868.614655 586.812414,868.772672 C586.82306,868.792845 586.831466,868.813578 586.839871,868.835991 L587.9925,872.005862 C587.832802,872.088233 587.677586,872.177888 587.527414,872.274828 L585.610474,869.452931 Z M587.958879,881.468966 C588.353362,881.124353 588.862716,880.908621 589.425862,880.908621 L589.425862,879.787931 C588.36681,879.787931 587.422069,880.281034 586.80569,881.048707 L586.157931,877.941034 C586.095733,877.64069 586.063793,877.33306 586.063793,876.986207 C586.063793,874.514526 588.074871,872.503448 590.546552,872.503448 C593.018233,872.503448 595.02931,874.514526 595.02931,877.026552 C595.02931,877.33306 594.997371,877.64069 594.935172,877.941034 L594.2,881.468966 L587.958879,881.468966 Z M592.227586,874.744828 L592.227586,875.865517 L593.348276,875.865517 L593.348276,874.744828 L592.227586,874.744828 Z M592.227586,876.986207 L592.227586,878.106897 L593.348276,878.106897 L593.348276,876.986207 L592.227586,876.986207 Z M592.227586,879.227586 L592.227586,880.348276 L593.348276,880.348276 L593.348276,879.227586 L592.227586,879.227586 Z M584.382759,885.951724 C583.029526,885.951724 581.897629,884.987371 581.637629,883.710345 L583.262069,883.710345 C584.615302,883.710345 585.746638,884.674698 586.007198,885.951724 L584.382759,885.951724 Z M595.48375,869.45125 L593.56625,872.273707 C593.415517,872.176767 593.260302,872.087112 593.100603,872.004741 L594.253233,868.834871 C594.261078,868.813578 594.270043,868.792845 594.285733,868.761466 C594.359138,868.614655 594.485216,868.505388 594.640991,868.453276 C594.797888,868.401164 594.96319,868.414052 595.11,868.486897 L595.250086,868.55694 C595.553233,868.708233 595.676509,869.07806 595.525776,869.378966 C595.513448,869.404181 595.498319,869.428836 595.48375,869.45125 Z M594.46,892.675862 C594.45944,891.498017 594.208405,890.354353 593.713621,889.313793 L610.158621,889.313793 L610.158621,892.675862 L594.46,892.675862 Z M607.917241,890.434483 L607.917241,891.555172 L609.037931,891.555172 L609.037931,890.434483 L607.917241,890.434483 Z M593.047371,897.158621 C593.737716,896.175776 594.209526,895.030991 594.388276,893.796552 L610.158621,893.796552 L610.158621,895.477586 C610.158621,896.404397 609.404397,897.158621 608.477586,897.158621 L593.047371,897.158621 Z M607.917241,894.917241 L607.917241,896.037931 L609.037931,896.037931 L609.037931,894.917241 L607.917241,894.917241 Z M587.264052,882.589655 L612.4,882.589655 L612.4,883.710345 L610.718966,883.710345 L610.158621,883.710345 L587.184483,883.710345 L587.184483,883.15 C587.184483,882.95556 587.216983,882.770086 587.264052,882.589655 Z M587.184483,886.437543 L587.184483,884.830474 L610.158621,884.830474 L610.158621,888.192543 L593.053534,888.192543 C592.870302,887.930302 592.675302,887.673664 592.457888,887.432155 C591.21056,886.045302 589.221336,885.605991 587.512284,886.337241 C587.409741,886.381509 587.297112,886.410086 587.184483,886.437543 Z M607.917241,885.951724 L607.917241,887.072414 L609.037931,887.072414 L609.037931,885.951724 L607.917241,885.951724 Z M591.625216,888.181897 C592.810345,889.499828 593.42,891.204397 593.342112,892.98125 C593.188578,896.443621 590.355474,899.261034 586.891983,899.394957 C585.032759,899.461638 583.292328,898.800991 581.962629,897.521724 C580.632931,896.241897 579.9,894.521078 579.9,892.675862 C579.9,891.026767 580.502931,889.441552 581.597284,888.210474 C582.209181,887.523491 583.039612,887.084181 583.825216,887.028147 C584.007888,887.054483 584.192802,887.072414 584.382759,887.072414 L586.063793,887.072414 L586.063793,888.639138 C585.507371,888.43125 584.978966,887.994741 584.778362,887.795819 L583.986595,888.589267 C584.117716,888.720948 585.309009,889.874138 586.624138,889.874138 C587.939267,889.874138 589.13056,888.720948 589.261681,888.589267 L588.469914,887.795819 C588.26931,887.995302 587.740905,888.43181 587.184483,888.639138 L587.184483,887.584009 C587.452888,887.540862 587.712888,887.470259 587.953276,887.367716 C589.202845,886.832026 590.712974,887.167672 591.625216,888.181897 Z M586.624138,898.27931 L586.624138,897.158621 C584.152457,897.158621 582.141379,895.147543 582.141379,892.675862 L581.02069,892.675862 C581.02069,895.765603 583.534397,898.27931 586.624138,898.27931 Z M607.788922,881.468966 L601.753448,881.468966 L595.717974,881.468966 C595.985819,880.427284 596.497414,879.464612 597.224741,878.656034 C598.137543,877.64181 599.648233,877.307284 600.897241,877.841853 C600.9925,877.882759 601.092241,877.91694 601.193103,877.948879 L601.193103,873.063793 C601.193103,871.518922 602.449957,870.262069 603.994828,870.262069 L604.555172,870.262069 L604.555172,871.382759 L603.994828,871.382759 C603.068017,871.382759 602.313793,872.136983 602.313793,873.063793 L602.313793,877.948879 C602.414655,877.91694 602.514397,877.882759 602.609655,877.841853 C603.859224,877.307284 605.369353,877.64181 606.282155,878.656034 C607.009483,879.464612 607.521078,880.427845 607.788922,881.468966 Z M599.235819,878.744569 L598.663147,879.707802 C598.706853,879.734138 599.753578,880.348276 601.753448,880.348276 C603.753319,880.348276 604.800043,879.734138 604.84319,879.707802 L604.271078,878.744569 C604.262672,878.749052 603.41431,879.227586 601.753448,879.227586 C600.092586,879.227586 599.244224,878.749052 599.235819,878.744569 Z" id="agricultural"></path>
        </g>
    </g>
</svg>