<svg xmlns="http://www.w3.org/2000/svg" viewBox="0 0 15 10" width="15" height="10">
	<defs>
		<clipPath clipPathUnits="userSpaceOnUse" id="cp1">
			<path d="M-971 -2571L469 -2571L469 194L-971 194Z" />
		</clipPath>
	</defs>
	<style>
		tspan { white-space:pre }
		.shp0 { fill: #e2e2e2 } 
	</style>
	<g id="Vitrade Ver 2" clip-path="url(#cp1)">
		<g id="Group 21">
			<g id="Group 7">
				<path id="email" fill-rule="evenodd" class="shp0" d="M0.5 1.07C0.59 1.13 0.97 1.33 1.61 1.68C2.26 2.02 2.95 2.4 3.69 2.79C4.43 3.19 5.11 3.56 5.73 3.89C6.35 4.23 6.69 4.41 6.74 4.43C6.84 4.48 6.95 4.52 7.08 4.55C7.21 4.58 7.35 4.59 7.49 4.59C7.63 4.59 7.76 4.58 7.89 4.55C8.02 4.52 8.14 4.48 8.24 4.43C8.29 4.41 8.63 4.23 9.24 3.89C9.86 3.56 10.54 3.19 11.28 2.79C12.03 2.4 12.72 2.02 13.37 1.68C14.01 1.33 14.38 1.13 14.48 1.07C14.69 0.97 14.84 0.76 14.94 0.46C15.05 0.15 14.91 0 14.53 0L0.45 0C0.07 0 -0.07 0.15 0.03 0.46C0.14 0.76 0.29 0.97 0.5 1.07ZM14.67 2.92C14.56 2.97 14.17 3.17 13.51 3.51C12.86 3.85 12.15 4.22 11.39 4.62C10.63 5.01 9.94 5.38 9.3 5.71C8.67 6.04 8.31 6.23 8.24 6.27C8.09 6.35 7.97 6.39 7.86 6.41C7.75 6.42 7.63 6.43 7.49 6.43C7.35 6.43 7.22 6.42 7.11 6.41C7.01 6.39 6.88 6.35 6.74 6.27C6.66 6.23 6.31 6.04 5.67 5.71C5.04 5.38 4.35 5.01 3.59 4.62C2.84 4.22 2.14 3.85 1.49 3.51C0.84 3.17 0.45 2.97 0.33 2.92C0.17 2.83 0.08 2.82 0.05 2.88C0.02 2.95 0.01 3.02 0.01 3.09C0.01 3.13 0.01 3.46 0.01 4.1C0.01 4.74 0.01 5.44 0.01 6.19C0.01 6.94 0.01 7.62 0.01 8.24C0.01 8.86 0.01 9.17 0.01 9.17C0.01 9.34 0.1 9.52 0.29 9.71C0.48 9.9 0.66 10 0.84 10L14.17 10C14.34 10 14.53 9.9 14.72 9.71C14.9 9.52 15 9.34 15 9.17C15 9.17 15 8.86 15 8.24C15 7.62 15 6.94 15 6.19C15 5.44 15 4.74 15 4.1C15 3.46 15 3.13 15 3.09C15 3.02 14.99 2.95 14.96 2.88C14.93 2.82 14.84 2.83 14.67 2.92Z" />
			</g>
		</g>
	</g>
</svg>