<?xml version="1.0" encoding="UTF-8"?>
<svg width="10px" height="15px" viewBox="0 0 10 15" version="1.1" xmlns="http://www.w3.org/2000/svg" xmlns:xlink="http://www.w3.org/1999/xlink">
    <!-- Generator: Sketch 52.5 (67469) - http://www.bohemiancoding.com/sketch -->
    <title>facebook</title>
    <desc>Created with Sketch.</desc>
    <g id="Page-1" stroke="none" stroke-width="1" fill="none" fill-rule="evenodd" opacity="0.802432106">
        <g id="Vitrade-Ver-2" transform="translate(-1398.000000, -293.000000)" fill="#FFFFFF">
            <g id="Group-6" transform="translate(1395.000000, 293.000000)">
                <path d="M3.75,5.48166785 L6.35135135,5.48166785 L6.35135135,3.33520228 C6.35135135,3.33520228 6.38091279,3.05956767 6.44003315,2.5082872 C6.49915604,1.95700674 6.8243218,1.41746383 7.41554054,0.889642729 C8.0198991,0.350090817 8.73263532,0.0597955166 9.55377189,0.0187410626 C10.374911,-0.0223111393 11.3569769,0.00408036621 12.5,0.0979133272 L12.5,2.49069212 L10.8051802,2.49069212 C10.8051802,2.49069212 10.6737996,2.50242293 10.411036,2.52588229 C10.1482724,2.54933941 9.93149441,2.64317237 9.76069694,2.80738568 C9.60303928,2.9833253 9.51435748,3.17099122 9.49465153,3.37039245 C9.47494306,3.56979144 9.46509009,3.69881232 9.46509009,3.75745736 L9.46509009,5.48166785 L12.4014652,5.48166785 L12.027027,8.13835494 L9.44538162,8.13835494 L9.44538162,15 L6.35135135,15 L6.35135135,8.13835494 L3.75,8.13835494 L3.75,5.48166785 Z" id="facebook"></path>
            </g>
        </g>
    </g>
</svg>