<?xml version="1.0" encoding="UTF-8"?>
<svg width="33px" height="33px" viewBox="0 0 33 33" version="1.1" xmlns="http://www.w3.org/2000/svg" xmlns:xlink="http://www.w3.org/1999/xlink">
    <!-- Generator: Sketch 52.5 (67469) - http://www.bohemiancoding.com/sketch -->
    <title>free</title>
    <desc>Created with Sketch.</desc>
    <g id="Page-1" stroke="none" stroke-width="1" fill="none" fill-rule="evenodd">
        <g id="Vitrade-Ver-2" transform="translate(-825.000000, -1475.000000)" fill="#FC7348">
            <g id="free" transform="translate(825.416667, 1475.333333)">
                <path d="M31.1948138,15.4000213 L17.3074255,1.51263298 C16.3465319,0.551739362 15.016867,0 13.6569149,0 L2.95037766,0 C1.32392553,0 0,1.32316489 0,2.95037766 L0,13.6562234 C0,15.0341543 0.537356383,16.3314574 1.51263298,17.3074255 L15.4000213,31.1948138 C16.2125213,32.0066223 17.2929734,32.4538777 18.4396702,32.4538777 C19.586367,32.4538777 20.6668191,32.0065532 21.4793191,31.1948138 L31.1947447,21.4793883 C32.0072447,20.6683404 32.4538085,19.5885798 32.4538085,18.4397394 C32.4538085,17.2908989 32.0073138,16.2110691 31.1948138,15.4000213 Z M7.98677128,9.03009043 L6.42220745,10.5949309 C6.27817021,10.7389681 6.08939362,10.8110213 5.90068617,10.8110213 C5.71197872,10.8110213 5.52327128,10.7389681 5.37916489,10.5949309 C5.09102128,10.3067872 5.09102128,9.84003191 5.37916489,9.55195745 L7.46442021,7.46635638 C7.46442021,7.46635638 7.46476596,7.46566489 7.4651117,7.46525 C7.46545745,7.46490426 7.46580319,7.46490426 7.46580319,7.46490426 L9.55105851,5.37930319 C9.82765426,5.10270745 10.3174362,5.10270745 10.5940319,5.37930319 L12.6800479,7.46531915 C12.9681915,7.75346277 12.9681915,8.22021809 12.6800479,8.50829255 C12.3919043,8.79643617 11.9251489,8.79643617 11.6370745,8.50829255 L10.0725798,6.94379787 L9.02960638,7.98697872 L10.0725798,9.03050532 C10.3607234,9.31864894 10.3607234,9.78540426 10.0725798,10.0734787 C9.92854255,10.217516 9.73976596,10.2895691 9.55105851,10.2895691 C9.36235106,10.2895691 9.17364362,10.217516 9.02953723,10.0734787 L7.98677128,9.03009043 Z M12.1586649,17.0696915 C11.9699574,17.0696915 11.78125,16.9976383 11.6371436,16.8536011 C11.349,16.5654574 11.349,16.0980106 11.6371436,15.8106277 L12.6815691,14.7668936 C12.9682606,14.4795106 12.9682606,14.0113032 12.6815691,13.7231596 L12.1585957,13.2023989 L10.5941011,14.7668936 C10.3059574,15.0550372 9.83920213,15.0550372 9.55112766,14.7668936 C9.26298404,14.47875 9.26298404,14.0119947 9.55112766,13.7239202 L11.6184043,11.6580957 C11.6241436,11.6509043 11.6299521,11.6444043 11.6371436,11.6379043 C11.642883,11.6314043 11.6501436,11.6249043 11.6573351,11.6184734 L13.7246117,9.55195745 C14.0127553,9.26381383 14.4795106,9.26381383 14.7675851,9.55195745 L15.8105585,10.5949309 C16.6734681,11.4578404 16.6734681,12.8610106 15.8105585,13.7239202 C15.4215957,14.112883 14.9130745,14.3397606 14.3670745,14.3685957 C14.3382394,14.8937128 14.1236011,15.4101862 13.7245426,15.8099362 L12.680117,16.8536702 C12.5361489,16.9976383 12.3473723,17.0696915 12.1586649,17.0696915 Z M16.8536011,19.9825904 C17.1417447,20.270734 17.1417447,20.7374894 16.8536011,21.0255638 C16.7095638,21.1696011 16.5207872,21.2416543 16.3320798,21.2416543 C16.1433723,21.2416543 15.9546649,21.1696011 15.8105585,21.0255638 L13.7245426,18.9395479 C13.4363989,18.6514043 13.4363989,18.1846489 13.7245426,17.8965745 L17.8965053,13.7238511 C18.0348032,13.5855532 18.2220585,13.5077606 18.4180266,13.5077606 C18.6139947,13.5077606 18.80125,13.5855532 18.9395479,13.7238511 L21.0255638,15.8105585 C21.3137074,16.0987021 21.3137074,16.5654574 21.0255638,16.8535319 C20.7374202,17.1416755 20.2706649,17.1416755 19.9825904,16.8535319 L18.4180957,15.2883457 L17.3748457,16.3318032 L18.4180957,17.3750532 C18.7062394,17.6631968 18.7062394,18.1299521 18.4180957,18.4180266 C18.2740585,18.5620638 18.0852819,18.634117 17.8965745,18.634117 C17.707867,18.634117 17.5191596,18.5620638 17.3750532,18.4180266 L16.3319415,17.3749149 L15.2890372,18.4180266 L16.8536011,19.9825904 Z M25.1975957,21.0255638 C24.9094521,21.3137074 24.4426968,21.3137074 24.1546223,21.0255638 L22.5901277,19.4610691 L21.5471543,20.5040426 L22.5901277,21.547016 C22.8782713,21.8351596 22.8782713,22.3019149 22.5901277,22.5899894 C22.4460904,22.7340266 22.2573138,22.8060798 22.0686064,22.8060798 C21.8798989,22.8060798 21.6911915,22.7340266 21.5470851,22.5899894 L20.5041117,21.547016 L19.4611383,22.5899894 L21.025633,24.1551755 C21.3137766,24.4433191 21.3137766,24.9100745 21.025633,25.1981489 C20.8815957,25.3421862 20.6928191,25.4142394 20.5041117,25.4142394 C20.3154043,25.4142394 20.1266968,25.3421862 19.9825904,25.1981489 L17.8965745,23.1114415 C17.6084309,22.8232979 17.6084309,22.3565426 17.8965745,22.0684681 L22.0685372,17.8965053 C22.3566809,17.6083617 22.8234362,17.6083617 23.1115106,17.8965053 L25.1975266,19.9825213 C25.4857394,20.270734 25.4857394,20.7374894 25.1975957,21.0255638 Z" id="Shape" fill-rule="nonzero"></path>
                <path d="M14.0415213,12.7805851 L14.0429734,12.7805851 C14.2403245,12.7805851 14.4247447,12.703484 14.5644947,12.5644947 C14.8526383,12.2771117 14.8526383,11.8089043 14.5644947,11.5215213 L14.0429734,11 L13,12.0429734 L13.5215213,12.563734 C13.6612021,12.7042447 13.8456223,12.7805851 14.0415213,12.7805851 Z" id="Path"></path>
            </g>
        </g>
    </g>
</svg>