<?xml version="1.0" encoding="UTF-8"?>
<svg width="15px" height="15px" viewBox="0 0 15 15" version="1.1" xmlns="http://www.w3.org/2000/svg" xmlns:xlink="http://www.w3.org/1999/xlink">
    <!-- Generator: Sketch 52.5 (67469) - http://www.bohemiancoding.com/sketch -->
    <title>instagram</title>
    <desc>Created with Sketch.</desc>
    <g id="Page-1" stroke="none" stroke-width="1" fill="none" fill-rule="evenodd" opacity="0.802432106">
        <g id="Vitrade-Ver-2" transform="translate(-1395.000000, -358.000000)" fill="#FFFFFF">
            <g id="Group-6" transform="translate(1395.000000, 293.000000)">
                <path d="M7.50000112,66.3364597 C8.49532103,66.3364597 9.15105274,66.3393903 9.46721424,66.3452516 C9.78337349,66.3511129 10.1405137,66.3657661 10.5386417,66.3892135 C10.889932,66.4009361 11.1768146,66.4331754 11.3992963,66.4859316 C11.6217802,66.5386854 11.7974243,66.6060948 11.9262306,66.6881596 C12.0901658,66.7350521 12.2423876,66.8053921 12.3829029,66.8991795 C12.5234203,66.9929647 12.6580789,67.0984746 12.7868852,67.2157072 C12.9156916,67.3446646 13.0210758,67.4736219 13.1030445,67.6025793 C13.1850132,67.7315345 13.2552686,67.8897983 13.3138173,68.0773731 C13.3489461,68.2063305 13.3957838,68.3792475 13.4543326,68.596131 C13.5128813,68.8130122 13.5538645,69.1031619 13.5772822,69.4665866 C13.5889933,69.8534587 13.597775,70.208087 13.6036294,70.5304805 C13.6094838,70.852874 13.6124133,71.5064416 13.6124133,72.4912058 C13.6124133,73.4876949 13.6094838,74.147126 13.6036294,74.4695195 C13.597775,74.791913 13.5889933,75.146539 13.5772822,75.5334112 C13.5772822,75.8968359 13.5509373,76.1869855 13.498243,76.403869 C13.4455509,76.6207502 13.3840749,76.7936695 13.3138173,76.9226247 C13.2552686,77.0867543 13.1791565,77.2391546 13.085479,77.3798368 C12.9918037,77.5205168 12.8922717,77.6553332 12.7868852,77.7842906 C12.6580789,77.913248 12.5292748,78.0187568 12.4004684,78.1008205 C12.271662,78.1828842 12.1135835,78.2532235 11.9262306,78.3118404 C11.7974243,78.3470107 11.6217802,78.3939034 11.3992963,78.4525204 C11.1768146,78.5111374 10.889932,78.5521686 10.5386417,78.5756154 C10.1405137,78.5990621 9.78337349,78.6107854 9.46721424,78.6107854 C9.15105274,78.6107854 8.49532103,78.6107854 7.50000112,78.6107854 C6.50467897,78.6107854 5.84894726,78.6107854 5.53278801,78.6107854 C5.21662651,78.6107854 4.85948628,78.5990621 4.46135831,78.5756154 C4.11006801,78.5756154 3.82318539,78.5492382 3.60070145,78.4964828 C3.37821977,78.4437276 3.20257574,78.3821809 3.07377162,78.3118404 C2.90983419,78.2532235 2.75761237,78.1799533 2.61709489,78.0920281 C2.47657967,78.0041027 2.34192112,77.9015245 2.21311475,77.7842906 C2.08430838,77.6553332 1.97892309,77.5263781 1.8969555,77.3974207 C1.81498792,77.2684633 1.74473098,77.1101995 1.68618267,76.9226247 C1.63934411,76.7936695 1.58372392,76.6207502 1.51932073,76.403869 C1.45491777,76.1869855 1.4110071,75.8968359 1.38758782,75.5334112 C1.37587807,75.146539 1.36709598,74.791913 1.36124133,74.4695195 C1.35538645,74.147126 1.35245902,73.4876949 1.35245902,72.4912058 C1.35245902,71.5064416 1.35538645,70.852874 1.36124133,70.5304805 C1.36709598,70.208087 1.37587807,69.8534587 1.38758782,69.4665866 C1.4110071,69.1031619 1.44906289,68.8130122 1.50175655,68.596131 C1.55444999,68.3792475 1.61592461,68.2063305 1.68618267,68.0773731 C1.74473098,67.9015231 1.82084257,67.7461899 1.91451991,67.6113713 C2.00819725,67.4765526 2.10772789,67.3446646 2.21311475,67.2157072 C2.34192112,67.0750272 2.47072525,66.9636582 2.59953162,66.8815934 C2.72833799,66.7995286 2.88641649,66.7350521 3.07377162,66.6881596 C3.20257574,66.6295422 3.37821977,66.5679941 3.60070145,66.5035154 C3.82318539,66.4390367 4.11006801,66.4009361 4.46135831,66.3892135 C4.85948628,66.3892135 5.21662651,66.3804216 5.53278801,66.3628355 C5.84894726,66.3452516 6.50467897,66.3364597 7.50000112,66.3364597 Z M7.50000112,65 C6.49297012,65 5.82845677,65 5.50644084,65 C5.18442492,65 4.82435747,65.0117226 4.42622951,65.0351677 C4.02810155,65.0468926 3.68267016,65.0820626 3.38992862,65.14068 C3.09718932,65.1992951 2.8337244,65.2754964 2.59953162,65.3692838 C2.35362773,65.4865186 2.11651178,65.6066795 1.88817341,65.7297756 C1.65983483,65.8528717 1.44613681,66.0199275 1.2470726,66.2309474 C1.03629864,66.4419696 0.866511288,66.6588486 0.737704918,66.8815934 C0.608898548,67.1043382 0.491803728,67.338801 0.386416862,67.5849932 C0.304449274,67.807738 0.231264899,68.0715095 0.166861827,68.3763191 C0.102458687,68.6811265 0.0585481293,69.0269606 0.0351288056,69.4138327 C0.0234191438,69.8124275 0.0146370323,70.1729171 0.00878220141,70.4953105 C0.00292737049,70.817704 0,71.4829964 0,72.4912058 C0,73.5111423 0.00292737049,74.182296 0.00878220141,74.5046895 C0.0146370323,74.8270829 0.0234191438,75.181709 0.0351288056,75.5685811 C0.0585481293,75.9671759 0.0995313162,76.3130122 0.158079625,76.606097 C0.216627934,76.8991795 0.292739522,77.1688146 0.386416862,77.4150045 C0.491803728,77.6611967 0.608898548,77.8897994 0.737704918,78.1008205 C0.866511288,78.3118416 1.03629864,78.5345825 1.2470726,78.7690503 C1.44613681,78.9683479 1.65398018,79.1383345 1.87060879,79.2790152 C2.08723762,79.4196958 2.33021002,79.5369279 2.59953162,79.6307151 C2.82201555,79.7010555 3.08255101,79.768464 3.38114698,79.8329425 C3.67974295,79.8974212 4.02810155,79.9413832 4.42622951,79.96483 C4.82435747,79.9765534 5.18442492,79.9853458 5.50644084,79.9912075 C5.82845677,79.9970692 6.49297012,80 7.50000112,80 C8.50702988,80 9.17154323,79.9970692 9.49355916,79.9912075 C9.81557508,79.9853458 10.1756425,79.9765534 10.5737705,79.96483 C10.9718985,79.9413832 11.3173298,79.9032828 11.6100691,79.8505275 C11.9028107,79.7977723 12.1662756,79.7245023 12.4004684,79.6307151 C12.6463723,79.5134812 12.8776333,79.3903876 13.0942629,79.2614302 C13.3108901,79.1324728 13.5304446,78.9683479 13.7529285,78.7690503 C13.9637014,78.5580292 14.1364159,78.3440807 14.2710767,78.1271981 C14.4057375,77.9103153 14.5199056,77.6729193 14.6135831,77.4150045 C14.6955519,77.192262 14.7687344,76.9284882 14.8331376,76.6236809 C14.8975408,76.3188735 14.9414512,75.9671759 14.9648712,75.5685811 C14.97658,75.181709 14.9853639,74.8270829 14.9912184,74.5046895 C14.9970728,74.182296 15,73.5111423 15,72.4912058 C15,71.4829964 14.9970728,70.817704 14.9912184,70.4953105 C14.9853639,70.1729171 14.97658,69.8124275 14.9648712,69.4138327 C14.9414512,69.0269606 14.900468,68.6869878 14.8419193,68.393903 C14.7833727,68.1008182 14.7072607,67.8311854 14.6135831,67.5849932 C14.5081967,67.338801 14.3911015,67.1072688 14.2622951,66.8903853 C14.1334887,66.6735041 13.9637014,66.4536922 13.7529285,66.2309474 C13.5538623,66.0082049 13.3401645,65.8382185 13.1118261,65.7209837 C12.8834878,65.6037489 12.6463723,65.4865186 12.4004684,65.3692838 C12.1779844,65.2989438 11.917449,65.2286038 11.618853,65.1582638 C11.320257,65.0879239 10.9718985,65.0468926 10.5737705,65.0351677 C10.1756425,65.0117226 9.81557508,65 9.49355916,65 C9.17154323,65 8.50702988,65 7.50000112,65 Z M7.50000112,68.6752629 C6.96135569,68.6752629 6.46077527,68.7749094 5.99824412,68.9742067 C5.53571297,69.1735063 5.13173508,69.4460698 4.7862992,69.7919107 C4.44086557,70.1377493 4.16861902,70.5451315 3.96955504,71.0140662 C3.77049105,71.4830032 3.67095906,71.9753785 3.67095906,72.4912058 C3.67095906,73.0187602 3.77049105,73.5140662 3.96955504,73.9771396 C4.16861902,74.440213 4.44086557,74.8475952 4.7862992,75.1992974 C5.13173508,75.5509973 5.53571297,75.8264937 5.99824412,76.025791 C6.46077527,76.2250884 6.96135569,76.3247371 7.50000112,76.3247371 C8.03864431,76.3247371 8.53922473,76.2250884 9.00175588,76.025791 C9.46428703,75.8264937 9.86826492,75.5539279 10.2137008,75.2080893 C10.5591344,74.8622484 10.831381,74.4577969 11.030445,73.9947235 C11.2295089,73.5316501 11.3290387,73.0304828 11.3290387,72.4912058 C11.3290387,71.9636537 11.2295089,71.465417 11.030445,70.9964823 C10.831381,70.5275476 10.5591344,70.1230961 10.2137008,69.7831188 C9.86826492,69.4431392 9.46428703,69.1735063 9.00175588,68.9742067 C8.53922473,68.7749094 8.03864431,68.6752629 7.50000112,68.6752629 Z M7.50000112,75.0058613 C6.80912937,75.0058613 6.21780084,74.7626042 5.72599532,74.2760834 C5.23418979,73.7895626 4.9882904,73.1946101 4.9882904,72.4912058 C4.9882904,71.7995263 5.23418979,71.2075045 5.72599532,70.7151224 C6.21780084,70.2227403 6.80912937,69.9765526 7.50000112,69.9765526 C8.19087063,69.9765526 8.78219916,70.2227403 9.27400468,70.7151224 C9.76581021,71.2075045 10.0117096,71.7995263 10.0117096,72.4912058 C10.0117096,73.1946101 9.76581021,73.7895626 9.27400468,74.2760834 C8.78219916,74.7626042 8.19087063,75.0058613 7.50000112,75.0058613 Z M12.4004684,68.4818268 C12.4004684,68.2356369 12.3126475,68.0246192 12.1370035,67.848767 C11.9613572,67.6729171 11.7505866,67.5849932 11.504685,67.5849932 C11.2587811,67.5849932 11.0480105,67.6729171 10.8723665,67.848767 C10.6967202,68.0246192 10.6088993,68.2356369 10.6088993,68.4818268 C10.6088993,68.728019 10.6967202,68.9390367 10.8723665,69.1148867 C11.0480105,69.2907389 11.2587811,69.3786627 11.504685,69.3786627 C11.7505866,69.3786627 11.9613572,69.2907389 12.1370035,69.1148867 C12.3126475,68.9390367 12.4004684,68.728019 12.4004684,68.4818268 Z" id="instagram"></path>
            </g>
        </g>
    </g>
</svg>