<?xml version="1.0" encoding="UTF-8"?>
<svg width="31px" height="32px" viewBox="0 0 31 32" version="1.1" xmlns="http://www.w3.org/2000/svg" xmlns:xlink="http://www.w3.org/1999/xlink">
    <!-- Generator: Sketch 52.5 (67469) - http://www.bohemiancoding.com/sketch -->
    <title>it-solution</title>
    <desc>Created with Sketch.</desc>
    <g id="Page-1" stroke="none" stroke-width="1" fill="none" fill-rule="evenodd">
        <g id="Vitrade-Ver-2" transform="translate(-831.000000, -867.000000)" fill="#FC7348" fill-rule="nonzero">
            <path d="M850.116667,894.963786 L850.116667,895.898765 C850.116667,896.642798 849.56688,897.261728 848.851496,897.367078 L848.619658,898.216461 C848.493803,898.677366 848.076496,899 847.592949,899 L845.294444,899 C844.810897,899 844.39359,898.677366 844.267735,898.216461 L844.042521,897.367078 C843.320513,897.255144 842.770726,896.642798 842.770726,895.892181 L842.770726,894.957202 C842.770726,894.45679 843.174786,894.055144 843.678205,894.055144 L849.209188,894.055144 C849.712607,894.061728 850.116667,894.463374 850.116667,894.963786 Z M854.375855,882.361317 C854.375855,884.488066 853.527991,886.417284 852.150214,887.832922 C851.103632,888.912757 850.427991,890.288889 850.202778,891.757202 C850.103419,892.3893 849.553632,892.85679 848.904487,892.85679 L843.982906,892.85679 C843.340385,892.85679 842.783974,892.395885 842.691239,891.763786 C842.459402,890.295473 841.777137,888.899588 840.730556,887.826337 C839.379274,886.430453 838.538034,884.534156 838.518162,882.446914 C838.471795,878.061728 841.982479,874.512757 846.394017,874.479835 C850.798932,874.446914 854.375855,877.9893 854.375855,882.361317 Z M847.341239,877.587654 C847.341239,877.100412 846.943803,876.698765 846.447009,876.698765 C843.294017,876.698765 840.723932,879.246914 840.723932,882.387654 C840.723932,882.874897 841.121368,883.276543 841.618162,883.276543 C842.108333,883.276543 842.512393,882.881481 842.512393,882.387654 C842.512393,880.227984 844.280983,878.476543 846.447009,878.476543 C846.943803,878.476543 847.341239,878.081481 847.341239,877.587654 Z M846.447009,871.892181 C846.937179,871.892181 847.341239,871.497119 847.341239,871.003292 L847.341239,867.888889 C847.341239,867.401646 846.943803,867 846.447009,867 C845.950214,867 845.552778,867.395062 845.552778,867.888889 L845.552778,871.003292 C845.552778,871.497119 845.956838,871.892181 846.447009,871.892181 Z M835.921581,882.354733 C835.921581,881.86749 835.524145,881.465844 835.02735,881.465844 L831.894231,881.465844 C831.40406,881.465844 831,881.860905 831,882.354733 C831,882.841975 831.397436,883.243621 831.894231,883.243621 L835.02735,883.243621 C835.524145,883.243621 835.921581,882.84856 835.921581,882.354733 Z M860.999786,881.465844 L857.866667,881.465844 C857.376496,881.465844 856.972436,881.860905 856.972436,882.354733 C856.972436,882.841975 857.369872,883.243621 857.866667,883.243621 L860.999786,883.243621 C861.489957,883.243621 861.894017,882.84856 861.894017,882.354733 C861.894017,881.86749 861.496581,881.465844 860.999786,881.465844 Z M837.743162,889.755556 L835.524145,891.961317 C835.173077,892.310288 835.173077,892.869959 835.524145,893.21893 C835.696368,893.390123 835.928205,893.47572 836.153419,893.47572 C836.378632,893.47572 836.61047,893.390123 836.782692,893.21893 L839.001709,891.013169 C839.352778,890.664198 839.352778,890.104527 839.001709,889.755556 C838.657265,889.406584 838.087607,889.406584 837.743162,889.755556 Z M854.521581,875.217284 C854.746795,875.217284 854.978632,875.131687 855.150855,874.960494 L857.369872,872.754733 C857.72094,872.405761 857.72094,871.846091 857.369872,871.497119 C857.018803,871.148148 856.455769,871.148148 856.104701,871.497119 L853.885684,873.702881 C853.534615,874.051852 853.534615,874.611523 853.885684,874.960494 C854.06453,875.131687 854.289744,875.217284 854.521581,875.217284 Z M837.743162,874.953909 C837.915385,875.125103 838.147222,875.2107 838.372436,875.2107 C838.59765,875.2107 838.829487,875.125103 839.001709,874.953909 C839.352778,874.604938 839.352778,874.045267 839.001709,873.696296 L836.782692,871.490535 C836.431624,871.141564 835.86859,871.141564 835.517521,871.490535 C835.166453,871.839506 835.166453,872.399177 835.517521,872.748148 L837.743162,874.953909 Z M855.150855,889.755556 C854.799786,889.406584 854.236752,889.406584 853.885684,889.755556 C853.534615,890.104527 853.534615,890.664198 853.885684,891.013169 L856.104701,893.21893 C856.276923,893.390123 856.508761,893.47572 856.733974,893.47572 C856.959188,893.47572 857.191026,893.390123 857.363248,893.21893 C857.714316,892.869959 857.714316,892.310288 857.363248,891.961317 L855.150855,889.755556 Z" id="it-solution"></path>
        </g>
    </g>
</svg>