<?xml version="1.0" encoding="UTF-8"?>
<svg width="34px" height="34px" viewBox="0 0 34 34" version="1.1" xmlns="http://www.w3.org/2000/svg" xmlns:xlink="http://www.w3.org/1999/xlink">
    <!-- Generator: Sketch 52.5 (67469) - http://www.bohemiancoding.com/sketch -->
    <title>materials</title>
    <desc>Created with Sketch.</desc>
    <g id="Page-1" stroke="none" stroke-width="1" fill="none" fill-rule="evenodd">
        <g id="Vitrade-Ver-2" transform="translate(-328.000000, -866.000000)" fill="#FC7348">
            <g id="materials" transform="translate(328.900000, 866.900000)">
                <path d="M31.5478516,15.2945107 L30.5957031,15.2945107 L30.5957031,4.77794151 C30.5957031,4.32506775 30.2748489,3.93529943 29.830513,3.84620952 L10.7240677,0.0405854045 C10.7235718,0.0403379483 10.7233238,0.0405854045 10.7228279,0.0405854045 C10.5976105,0.0143533431 10.27874,0.0512267154 10.1837731,0.0895848246 L0.598812119,3.89520894 C0.237045288,4.03998003 0,4.38891556 0,4.77794151 C0,5.13355872 0,12.9373401 0,12.4436335 C0,12.968769 0.425987275,13.3939259 0.952148438,13.3939259 L6.72851562,13.3939259 C7.25467679,13.3939259 7.68066406,12.968769 7.68066406,12.4436335 L7.68066406,7.6288187 L9.58496094,7.6288187 L9.58496094,30.5625419 L7.68066406,30.5625419 L7.68066406,28.5986043 L0,28.5986043 L0,31.5128343 C0,32.0379698 0.489463838,32.4631267 1.015625,32.4631267 L31.5478516,32.4631267 C32.0740127,32.4631267 32.5,32.0379698 32.5,31.5128343 C32.5,30.9874513 32.0740127,30.5625419 31.5478516,30.5625419 L17.2021484,30.5625419 L17.2021484,7.6288187 L28.6914062,7.6288187 L28.6914062,15.2945107 L27.7392578,15.2945107 C27.2130967,15.2945107 26.7871094,15.7194201 26.7871094,16.2448031 L26.7871094,20.0459727 C26.7871094,20.5711082 27.2130967,20.9962651 27.7392578,20.9962651 L28.6914062,20.9962651 L28.6914062,21.9465575 C28.6914062,22.471693 29.1173935,22.8968499 29.6435547,22.8968499 C30.168972,22.8968499 30.5957031,23.3227491 30.5957031,23.8471423 C30.5957031,24.3712879 30.168972,24.7974347 29.6435547,24.7974347 C29.1181373,24.7974347 28.6914062,24.3712879 28.6914062,23.8471423 C28.6914062,23.3217593 28.265419,22.8968499 27.7392578,22.8968499 C27.2130967,22.8968499 26.7871094,23.3217593 26.7871094,23.8471423 C26.7871094,25.4190843 28.0685425,26.6980195 29.6435547,26.6980195 C31.2185669,26.6980195 32.5,25.4190843 32.5,23.8471423 C32.5,22.6080501 31.7040634,21.5510972 30.5957031,21.1586067 L30.5957031,20.9962651 L31.5478516,20.9962651 C32.0740127,20.9962651 32.5,20.5711082 32.5,20.0459727 L32.5,16.2448031 C32.5,15.7194201 32.0740127,15.2945107 31.5478516,15.2945107 Z M9.58496094,5.7282339 L1.90429688,5.7282339 L1.90429688,5.42087367 L9.58496094,2.38018546 L9.58496094,5.7282339 Z M11.4892578,3.27083712 L13.9514541,5.7282339 L11.4892578,5.7282339 L11.4892578,3.27083712 Z M11.4892578,9.91051034 L14.4302559,11.5618908 L11.4892578,13.5186518 L11.4892578,9.91051034 Z M11.4892578,17.0701221 L14.5336533,19.0956803 L11.4892578,21.120991 L11.4892578,17.0701221 Z M11.4892578,24.6724613 L14.5336533,26.6980195 L11.4892578,28.7233302 L11.4892578,24.6724613 Z M15.2978516,30.5625419 L12.2534561,30.5625419 L15.2978516,28.4736309 L15.2978516,30.5625419 Z M15.2978516,24.9221606 L12.2534561,22.8968499 L15.2978516,20.8712917 L15.2978516,24.9221606 Z M15.2978516,17.3198214 L12.2534561,15.2945107 L15.2978516,13.2689525 L15.2978516,17.3198214 Z M15.2978516,9.86893505 L11.4892578,7.66742433 L11.4892578,7.6288187 L15.2978516,7.6288187 L15.2978516,9.86893505 Z M28.6914062,5.7282339 L16.644249,5.7282339 L13.4337234,2.52371927 L28.6914062,5.55648832 L28.6914062,5.7282339 Z" id="Shape" fill-rule="nonzero"></path>
                <path d="M7.68066406,22.8968499 L0.952148438,22.8968499 C0.426235215,22.8968499 0,23.3222542 0,23.8471423 L0,26.6980195 L7.68066406,26.6980195 L7.68066406,22.8968499 Z" id="Path"></path>
            </g>
        </g>
    </g>
</svg>