<?xml version="1.0" encoding="UTF-8"?>
<svg width="32px" height="32px" viewBox="0 0 32 32" version="1.1" xmlns="http://www.w3.org/2000/svg" xmlns:xlink="http://www.w3.org/1999/xlink">
    <!-- Generator: Sketch 52.5 (67469) - http://www.bohemiancoding.com/sketch -->
    <title>more</title>
    <desc>Created with Sketch.</desc>
    <g id="Page-1" stroke="none" stroke-width="1" fill="none" fill-rule="evenodd">
        <g id="Vitrade-Ver-2" transform="translate(-1081.000000, -867.000000)" fill="#FC7348">
            <g id="more" transform="translate(1081.000000, 867.000000)">
                <path d="M29.8067027,13.9861622 L17.6549189,13.9861622 L17.6549189,1.83481081 C17.6549189,0.822918919 16.8337297,0 15.8205405,0 C14.8073514,0 13.9861622,0.822918919 13.9861622,1.83437838 L13.9861622,13.9861622 L1.83437838,13.9861622 C0.821621622,13.9861622 0,14.8090811 0,15.8205405 C0,16.8354595 0.821621622,17.6549189 1.83437838,17.6549189 L13.9861622,17.6549189 L13.9861622,29.8062703 C13.9861622,30.8220541 14.8073514,31.6406486 15.8205405,31.6406486 C16.8337297,31.6406486 17.6549189,30.8207568 17.6549189,29.8062703 L17.6549189,17.6549189 L29.8067027,17.6549189 C30.8203243,17.6549189 31.6410811,16.835027 31.6410811,15.8205405 C31.6410811,14.8090811 30.8198919,13.9861622 29.8067027,13.9861622 Z" id="Path"></path>
            </g>
        </g>
    </g>
</svg>