<svg xmlns="http://www.w3.org/2000/svg" viewBox="0 0 8 15" width="8" height="15">
	<defs>
		<clipPath clipPathUnits="userSpaceOnUse" id="cp1">
			<path d="M-974 -2603L466 -2603L466 162L-974 162Z" />
		</clipPath>
	</defs>
	<style>
		tspan { white-space:pre }
		.shp0 { fill: #e2e2e2 } 
	</style>
	<g id="Vitrade Ver 2" clip-path="url(#cp1)">
		<g id="Group 21">
			<g id="Group 7">
				<path id="phone" fill-rule="evenodd" class="shp0" d="M7.7 0.37C7.9 0.62 8 0.91 8 1.25L8 13.75C8 14.09 7.9 14.38 7.7 14.63C7.51 14.88 7.27 15 7 15L1 15C0.72 15 0.48 14.88 0.29 14.63C0.1 14.38 0 14.09 0 13.75L0 1.25C0 0.91 0.1 0.62 0.29 0.37C0.48 0.12 0.72 0 1 0L7 0C7.27 0 7.51 0.12 7.7 0.37ZM2.5 1.37L5.03 1.37L5 0.62L2.5 0.62L2.5 1.37ZM4.34 13.88C4.44 13.75 4.48 13.61 4.48 13.44C4.48 13.27 4.44 13.12 4.34 13C4.25 12.87 4.13 12.81 3.98 12.81C3.85 12.81 3.73 12.87 3.63 13C3.53 13.12 3.48 13.27 3.48 13.44C3.48 13.61 3.53 13.75 3.63 13.88C3.73 14 3.85 14.06 3.98 14.06C4.13 14.06 4.25 14 4.34 13.88ZM7 1.87L1.02 1.87L1 11.87L7 11.87L7 1.87Z" />
			</g>
		</g>
	</g>
</svg>