<svg xmlns="http://www.w3.org/2000/svg" viewBox="0 0 11 16" width="11" height="16">
	<defs>
		<clipPath clipPathUnits="userSpaceOnUse" id="cp1">
			<path d="M-972 -2534L468 -2534L468 231L-972 231Z" />
		</clipPath>
	</defs>
	<style>
		tspan { white-space:pre }
		.shp0 { fill: #e2e2e2 } 
	</style>
	<g id="Vitrade Ver 2" clip-path="url(#cp1)">
		<g id="Group 21">
			<g id="Group 7">
				<path id="position" fill-rule="evenodd" class="shp0" d="M0.44 7.76C0.14 7.07 0 6.34 0 5.59C0 4.84 0.14 4.11 0.44 3.42C0.7 2.76 1.09 2.16 1.61 1.63C2.11 1.12 2.69 0.72 3.36 0.44C4.03 0.15 4.74 0 5.49 0C6.26 0 6.97 0.15 7.64 0.44C8.29 0.72 8.88 1.12 9.38 1.63C9.9 2.16 10.3 2.75 10.56 3.42C10.85 4.11 11 4.84 11 5.59C11 6.34 10.85 7.07 10.56 7.76C10.38 8.19 10.19 8.54 9.99 8.82L6.35 14.45C6.12 14.82 5.83 15 5.5 15C5.17 15 4.88 14.82 4.64 14.45L1.01 8.82C0.77 8.49 0.58 8.13 0.44 7.76ZM3.46 5.59C3.46 6.17 3.65 6.66 4.05 7.06C4.45 7.47 4.93 7.68 5.49 7.68C6.07 7.68 6.55 7.47 6.94 7.06C7.34 6.67 7.54 6.18 7.54 5.59C7.54 5.02 7.34 4.53 6.94 4.12C6.55 3.71 6.07 3.5 5.49 3.5C4.93 3.5 4.45 3.71 4.05 4.12C3.65 4.53 3.46 5.02 3.46 5.59Z" />
			</g>
		</g>
	</g>
</svg>