<?xml version="1.0" encoding="UTF-8"?>
<svg width="20px" height="22px" viewBox="0 0 20 22" version="1.1" xmlns="http://www.w3.org/2000/svg" xmlns:xlink="http://www.w3.org/1999/xlink">
    <!-- Generator: Sketch 52.5 (67469) - http://www.bohemiancoding.com/sketch -->
    <title>register</title>
    <desc>Created with Sketch.</desc>
    <g id="Page-1" stroke="none" stroke-width="1" fill="none" fill-rule="evenodd">
        <g id="Vitrade-Ver-2" transform="translate(-830.000000, -1588.000000)" fill="#FFFFFF">
            <g id="Group-3" transform="translate(807.000000, 1572.000000)">
                <path d="M42.6883638,16.1350442 C42.9338966,16.331474 43.0343397,16.5933757 42.9896981,16.9207577 L40.1326102,35.7779018 C40.0954084,36.015254 39.9763631,36.1994042 39.775472,36.330357 C39.671309,36.3958337 39.5559837,36.4285713 39.4294986,36.4285713 C39.3476527,36.4285713 39.2583694,36.4081103 39.1616462,36.3671875 L34.1059378,34.0959817 L31.405097,37.7176338 C31.2711695,37.9058789 31.0888855,38 30.8582324,38 C30.7615068,38 30.6796658,37.9836311 30.6127021,37.9508929 C30.4713348,37.8936009 30.357872,37.7974337 30.2723061,37.6623883 C30.1867427,37.5273432 30.1439611,37.3779769 30.1439611,37.2142857 L30.1439611,32.9296875 L39.7866343,19.9285702 L27.8560573,31.284599 L23.44766,29.2957577 C23.1723664,29.1811763 23.0235612,28.9561025 23.0012401,28.6205365 C22.9863593,28.2931545 23.1054035,28.0517128 23.358376,27.8962058 L41.9294508,16.1104922 C42.0410562,16.0368307 42.1600989,16 42.2865865,16 C42.4353936,16 42.5693186,16.0450147 42.6883638,16.1350442 Z" id="register"></path>
            </g>
        </g>
    </g>
</svg>