<?xml version="1.0" encoding="UTF-8"?>
<svg width="45px" height="45px" viewBox="0 0 45 45" version="1.1" xmlns="http://www.w3.org/2000/svg" xmlns:xlink="http://www.w3.org/1999/xlink">
    <!-- Generator: Sketch 52.5 (67469) - http://www.bohemiancoding.com/sketch -->
    <title>scroll</title>
    <desc>Created with Sketch.</desc>
    <g id="Page-1" stroke="none" stroke-width="1" fill="none" fill-rule="evenodd">
        <g id="Vitrade-Ver-2" transform="translate(-698.000000, -600.000000)" fill="#E0E0E0">
            <path d="M698,622.5 C698,625.571445 698.58928,628.48213 699.767857,631.232146 C700.946435,633.982155 702.535704,636.357134 704.535714,638.357143 C706.607154,640.428581 708.999989,642.053565 711.714286,643.232143 C714.428583,644.41072 717.357125,645 720.5,645 C723.571445,645 726.48213,644.41072 729.232146,643.232143 C731.982155,642.053565 734.357134,640.428581 736.357143,638.357143 C738.428583,636.357134 740.053568,633.982155 741.232146,631.232146 C742.410718,628.48213 743,625.571445 743,622.5 C743,619.428555 742.410718,616.51787 741.232146,613.767854 C740.053568,611.017845 738.428583,608.642866 736.357143,606.642857 C734.357134,604.571417 731.982155,602.946432 729.232146,601.767854 C726.48213,600.589282 723.571445,600 720.5,600 C717.357125,600 714.428583,600.589282 711.714286,601.767854 C708.999989,602.946432 706.607154,604.571417 704.535714,606.642857 C702.535704,608.642866 700.946435,611.017845 699.767857,613.767854 C698.58928,616.51787 698,619.428555 698,622.5 Z M741.178571,622.5 C741.178571,625.357159 740.625008,628.035703 739.517861,630.535714 C738.410706,633.035726 736.928583,635.214274 735.071429,637.071429 C733.214274,639.00001 731.035726,640.499995 728.535714,641.571429 C726.035703,642.642863 723.357159,643.178571 720.5,643.178571 C717.642841,643.178571 714.964297,642.642863 712.464286,641.571429 C709.964274,640.499995 707.750007,639.00001 705.821429,637.071429 C703.964276,635.214274 702.500005,633.035726 701.428571,630.535714 C700.357137,628.035703 699.821429,625.357159 699.821429,622.5 C699.821429,619.642841 700.357137,616.964297 701.428571,614.464286 C702.500005,611.964274 703.964276,609.785726 705.821429,607.928571 C707.750007,605.999993 709.964274,604.500007 712.464286,603.428571 C714.964297,602.357136 717.642841,601.821429 720.5,601.821429 C723.357159,601.821429 726.035703,602.357136 728.535714,603.428571 C731.035726,604.500007 733.214274,605.999993 735.071429,607.928571 C736.928583,609.785726 738.410706,611.964274 739.517861,614.464286 C740.625008,616.964297 741.178571,619.642841 741.178571,622.5 Z M710.857143,623.892857 L709.571429,625.178571 L720.5,636.107143 L731.428571,625.178571 L730.142857,623.892857 L721.357143,632.678571 L721.357143,610.821429 L719.535714,610.821429 L719.535714,632.678571 L710.857143,623.892857 Z" id="scroll"></path>
        </g>
    </g>
</svg>