<?xml version="1.0" encoding="UTF-8"?>
<svg width="10px" height="17px" viewBox="0 0 10 17" version="1.1" xmlns="http://www.w3.org/2000/svg" xmlns:xlink="http://www.w3.org/1999/xlink">
    <!-- Generator: Sketch 52.5 (67469) - http://www.bohemiancoding.com/sketch -->
    <title>slide-arrow</title>
    <desc>Created with Sketch.</desc>
    <g id="Page-1" stroke="none" stroke-width="1" fill="none" fill-rule="evenodd">
        <g id="Vitrade-Ver-2" transform="translate(-117.000000, -2100.000000)" fill="#FFFFFF">
            <g id="Group-16-Copy" transform="translate(122.500000, 2107.500000) scale(-1, 1) translate(-122.500000, -2107.500000) translate(100.000000, 2085.000000)">
                <path d="M28.9527992,19.1521752 L22.8749999,25.1903422 L16.7972005,19.1521752 C16.3179452,18.627113 15.8386969,18.616175 15.3594416,19.119357 C14.8801861,19.6225432 14.8801861,20.1147788 15.3594416,20.5960847 L22.1561204,27.4218387 C22.3303956,27.640614 22.5700193,27.75 22.8749999,27.75 C23.1799804,27.75 23.4196041,27.640614 23.5938793,27.4218387 L30.3905582,20.5960847 C30.8698139,20.1147788 30.8698139,19.6225432 30.3905582,19.119357 C29.9113024,18.616175 29.432055,18.627113 28.9527992,19.1521752 Z" id="slide-arrow" transform="translate(22.875000, 23.250000) scale(-1, 1) rotate(90.000000) translate(-22.875000, -23.250000) "></path>
            </g>
        </g>
    </g>
</svg>