<?xml version="1.0" encoding="UTF-8"?>
<svg width="15px" height="14px" viewBox="0 0 15 14" version="1.1" xmlns="http://www.w3.org/2000/svg" xmlns:xlink="http://www.w3.org/1999/xlink">
    <!-- Generator: Sketch 52.5 (67469) - http://www.bohemiancoding.com/sketch -->
    <title>twitter</title>
    <desc>Created with Sketch.</desc>
    <g id="Page-1" stroke="none" stroke-width="1" fill="none" fill-rule="evenodd" opacity="0.802432106">
        <g id="Vitrade-Ver-2" transform="translate(-1395.000000, -326.000000)" fill="#FFFFFF">
            <g id="Group-6" transform="translate(1395.000000, 293.000000)">
                <path d="M13.4713376,36.8668397 C13.4713376,36.9321159 13.4713376,37.0001076 13.4713376,37.070823 C13.4713376,37.1415363 13.4713376,37.20953 13.4713376,37.2748042 C13.4713376,38.3191948 13.2802568,39.3744512 12.8980892,40.4406005 C12.5159215,41.5067499 11.955948,42.4695342 11.2181524,43.3289807 C10.4803567,44.188429 9.56741503,44.8901191 8.47929885,45.4340731 C7.39118268,45.9780272 6.1358879,46.25 4.7133758,46.25 C3.84288408,46.25 3.0095572,46.1248925 2.21337682,45.8746736 C1.41719338,45.6244547 0.679408917,45.2763294 0,44.8302872 C0.116773401,44.8411664 0.23619893,44.8520451 0.358280153,44.8629243 C0.48036158,44.8738034 0.60509493,44.8792428 0.732484076,44.8792428 C1.45435597,44.8792428 2.13906344,44.7595747 2.78662522,44.520235 C3.43418497,44.2808952 4.02335185,43.9490893 4.55414013,43.5248031 C3.88534624,43.5139248 3.28822013,43.3045065 2.76273936,42.8965399 C2.2372586,42.4885755 1.87898191,41.969106 1.68789809,41.3381211 C1.77282425,41.3598778 1.86571068,41.3734778 1.96656061,41.378917 C2.06740994,41.3843561 2.1656051,41.3870757 2.2611465,41.3870757 C2.3991521,41.3870757 2.53715363,41.378917 2.67515924,41.3625974 C2.81316484,41.3462799 2.94585885,41.3218016 3.07324739,41.2891645 C2.37260841,41.1368574 1.78609569,40.7724146 1.31369417,40.1958214 C0.841292841,39.6192303 0.605095541,38.9501775 0.605095541,38.1886423 C0.605095541,38.177764 0.605095541,38.1696031 0.605095541,38.164164 C0.605095541,38.1587248 0.605095541,38.1560052 0.605095541,38.1560052 C0.806795006,38.2647969 1.02706894,38.3545473 1.26592367,38.4252606 C1.50477819,38.495976 1.74628321,38.5367718 1.99044586,38.5476501 C1.57643108,38.2647948 1.2446934,37.8921911 0.995222828,37.4298308 C0.745752459,36.9674684 0.621019108,36.4643185 0.621019108,35.9203666 C0.621019108,35.6266308 0.658173758,35.3464992 0.732484076,35.0799614 C0.806794395,34.8134235 0.91295042,34.565929 1.05095541,34.3374674 C1.42250721,34.8161473 1.84447755,35.2485838 2.31687949,35.6347916 C2.78928102,36.0209995 3.29352153,36.3582444 3.82961732,36.646541 C4.36571312,36.9348355 4.9336479,37.163293 5.53344,37.3319196 C6.13323006,37.5005441 6.75158828,37.6011749 7.38853503,37.633812 C7.3566879,37.514142 7.3354558,37.3944742 7.32484076,37.2748042 C7.31422573,37.1551342 7.30891822,37.0354663 7.30891822,36.9157963 C7.30891822,36.4806339 7.38853503,36.069954 7.5477707,35.6837462 C7.70700637,35.2975384 7.92728051,34.9630131 8.20859924,34.6801577 C8.48991592,34.3973003 8.8163465,34.1715624 9.18789707,34.0029379 C9.55944968,33.8343112 9.9575358,33.75 10.3821656,33.75 C10.8280275,33.75 11.2446899,33.8397504 11.6321651,34.0192554 C12.0196403,34.1987603 12.3513783,34.4408157 12.6273875,34.7454319 C12.977708,34.6801556 13.3174074,34.5822465 13.6464958,34.4516961 C13.9755862,34.3211478 14.288746,34.1688428 14.5859873,33.994777 C14.4692138,34.3537869 14.2940555,34.6828752 14.0605106,34.9820501 C13.8269636,35.2812251 13.5509564,35.5287196 13.2324851,35.7245441 C13.5403414,35.691905 13.8428861,35.6347916 14.1401274,35.5531979 C14.4373687,35.4716063 14.7239908,35.3655363 15,35.2349859 C14.7983001,35.5504804 14.567411,35.8469316 14.3073243,36.1243478 C14.0472377,36.401764 13.7685789,36.6492585 13.4713376,36.8668397 Z" id="twitter"></path>
            </g>
        </g>
    </g>
</svg>